<?xml version="1.0" encoding="UTF-8" standalone="no"?><!DOCTYPE svg PUBLIC "-//W3C//DTD SVG 1.1//EN" "http://www.w3.org/Graphics/SVG/1.1/DTD/svg11.dtd"><svg width="100%" height="100%" viewBox="0 0 180 180" version="1.1" xmlns="http://www.w3.org/2000/svg" xmlns:xlink="http://www.w3.org/1999/xlink" xml:space="preserve" xmlns:serif="http://www.serif.com/" style="fill-rule:evenodd;clip-rule:evenodd;stroke-linejoin:round;stroke-miterlimit:2;"><g id="sp_logo"><g id="グループ_10248"><g id="グループ_10247"><g id="グループ_10245"><path id="パス_4088" d="M174.103,72.128c-11.88,-28.561 -39.604,-47.506 -70.501,-48.175c6.336,8.9 9.986,19.439 10.514,30.356c2.285,0.576 4.525,1.319 6.703,2.222c18.359,7.599 30.393,25.618 30.393,45.505c0,27.013 -22.203,49.242 -49.186,49.242c-22.383,-0 -42.079,-15.297 -47.642,-37.002c-10.917,-0.499 -21.464,-4.132 -30.375,-10.464c1.027,42.109 35.91,76.188 77.984,76.188c42.793,0 78.007,-35.253 78.007,-78.096c0,-10.22 -2.004,-20.341 -5.897,-29.787l-0,0.011Zm-120.436,20.915c3.689,-19.942 19.328,-35.649 39.237,-39.406c-1.017,-10.407 -6.509,-19.874 -15.037,-25.913c-23.766,7.788 -42.426,26.512 -50.151,50.323c1.173,1.642 2.477,3.185 3.902,4.613c5.912,5.932 13.715,9.607 22.049,10.387l-0,-0.004Z" style="fill:#014bb4;fill-rule:nonzero;"/></g><g id="グループ_10246"><path id="パス_4089" d="M113.967,54.258c-6.929,-1.742 -14.152,-1.971 -21.176,-0.668c0.117,1.184 0.176,2.373 0.176,3.561c0,19.722 -16.21,35.951 -35.91,35.951c-1.148,-0 -2.295,-0.055 -3.437,-0.164c-1.29,7.035 -1.041,14.265 0.728,21.195c0.897,0.045 1.795,0.065 2.692,0.062l0.07,0c31.236,0 56.94,-25.733 56.94,-57.005l0,-0.066c-0.009,-0.959 -0.037,-1.915 -0.083,-2.866Zm-56.941,-33.124c4.637,-0.004 9.233,0.889 13.534,2.63c2.55,1.032 4.971,2.357 7.216,3.949c7.78,-2.517 15.907,-3.794 24.084,-3.785l1.604,-0c-10.697,-15.003 -28.013,-23.928 -46.425,-23.928c-31.291,0 -57.039,25.778 -57.039,57.103c0,18.478 8.958,35.851 24.004,46.553c0,-0.591 -0.021,-1.188 -0.021,-1.781c-0.011,-8.126 1.245,-16.203 3.722,-23.94c-4.328,-6.091 -6.654,-13.384 -6.654,-20.858c-0,-19.736 16.221,-35.977 35.935,-35.977l0.036,0l0.004,0.034Z" style="fill:#014bb4;fill-rule:nonzero;"/></g></g></g></g></svg>