<svg xmlns="http://www.w3.org/2000/svg" width="27" height="27" viewBox="0 0 27 27">
    <g id="up-arrow" transform="translate(27) rotate(90)">
        <g id="グループ_10303" data-name="グループ 10303">
            <g id="グループ_10302" data-name="グループ 10302">
                <path id="パス_4090" data-name="パス 4090" d="M13.5,0A13.5,13.5,0,1,0,27,13.5,13.515,13.515,0,0,0,13.5,0Zm0,24.909A11.409,11.409,0,1,1,24.909,13.5,11.422,11.422,0,0,1,13.5,24.909Z" fill="#014bb4"/>
            </g>
        </g>
        <g id="グループ_10305" data-name="グループ 10305" transform="translate(7.288 9.41)">
            <g id="グループ_10304" data-name="グループ 10304">
                <path id="パス_4091" data-name="パス 4091" d="M150.38,183.979l-5.229-5.229a1.045,1.045,0,0,0-1.474,0l-5.229,5.229a1.046,1.046,0,0,0,1.474,1.474l4.486-4.486,4.5,4.486a1.043,1.043,0,1,0,1.474-1.474Z" transform="translate(-138.197 -178.446)" fill="#014bb4"/>
            </g>
        </g>
    </g>
</svg>