<?xml version="1.0" encoding="UTF-8"?>
<svg xmlns="http://www.w3.org/2000/svg" xmlns:xlink="http://www.w3.org/1999/xlink" width="32px" height="32px" viewBox="0 0 32 32" version="1.1">
<g id="surface1">
<path style=" stroke:none;fill-rule:nonzero;fill:rgb(0.392157%,29.411765%,70.588235%);fill-opacity:1;" d="M 30.953125 12.824219 C 28.839844 7.746094 23.910156 4.378906 18.417969 4.257812 C 19.542969 5.839844 20.195312 7.714844 20.289062 9.65625 C 20.695312 9.757812 21.089844 9.890625 21.480469 10.050781 C 24.742188 11.402344 26.882812 14.605469 26.882812 18.140625 C 26.882812 22.941406 22.933594 26.894531 18.136719 26.894531 C 14.160156 26.894531 10.65625 24.175781 9.667969 20.316406 C 7.726562 20.226562 5.851562 19.582031 4.269531 18.457031 C 4.449219 25.941406 10.652344 32 18.132812 32 C 25.738281 32 32 25.734375 32 18.117188 C 32 16.300781 31.644531 14.5 30.953125 12.820312 Z M 9.539062 16.539062 C 10.195312 12.996094 12.976562 10.203125 16.515625 9.535156 C 16.335938 7.683594 15.359375 6.003906 13.84375 4.929688 C 9.617188 6.3125 6.300781 9.640625 4.925781 13.875 C 5.136719 14.167969 5.367188 14.441406 5.621094 14.695312 C 6.671875 15.75 8.058594 16.402344 9.539062 16.542969 Z M 9.539062 16.539062 "/>
<path style=" stroke:none;fill-rule:nonzero;fill:rgb(0.392157%,29.411765%,70.588235%);fill-opacity:1;" d="M 20.261719 9.644531 C 19.027344 9.335938 17.746094 9.296875 16.496094 9.527344 C 16.515625 9.738281 16.527344 9.949219 16.527344 10.160156 C 16.527344 13.667969 13.644531 16.550781 10.144531 16.550781 C 9.9375 16.550781 9.734375 16.542969 9.53125 16.523438 C 9.304688 17.773438 9.347656 19.058594 9.660156 20.289062 C 9.820312 20.296875 9.980469 20.300781 10.140625 20.300781 L 10.152344 20.300781 C 15.707031 20.300781 20.277344 15.726562 20.277344 10.167969 L 20.277344 10.15625 C 20.273438 9.984375 20.269531 9.816406 20.261719 9.644531 Z M 10.136719 3.757812 C 10.960938 3.757812 11.78125 3.914062 12.542969 4.226562 C 12.996094 4.40625 13.425781 4.644531 13.828125 4.925781 C 15.210938 4.480469 16.65625 4.253906 18.109375 4.253906 L 18.394531 4.253906 C 16.492188 1.585938 13.414062 0 10.140625 0 C 4.578125 0 0 4.582031 0 10.152344 C 0 13.4375 1.59375 16.523438 4.265625 18.425781 C 4.265625 18.324219 4.261719 18.214844 4.261719 18.109375 C 4.261719 16.667969 4.484375 15.230469 4.925781 13.855469 C 4.15625 12.773438 3.742188 11.476562 3.742188 10.148438 C 3.742188 6.636719 6.625 3.75 10.128906 3.75 L 10.136719 3.75 Z M 10.136719 3.757812 "/>
</g>
</svg>
