<svg xmlns="http://www.w3.org/2000/svg" width="20" height="20" viewBox="0 0 20 20">
  <g id="グループ_10515" data-name="グループ 10515" transform="translate(-340 -370)">
    <g id="up-arrow" transform="translate(360 370) rotate(90)">
      <g id="グループ_10303" data-name="グループ 10303">
        <g id="グループ_10302" data-name="グループ 10302">
          <path id="パス_4090" data-name="パス 4090" d="M10,0A10,10,0,1,0,20,10,10.011,10.011,0,0,0,10,0Zm0,18.451A8.451,8.451,0,1,1,18.451,10,8.461,8.461,0,0,1,10,18.451Z" fill="#014bb4"/>
        </g>
      </g>
      <g id="グループ_10305" data-name="グループ 10305" transform="translate(5.181 6.849)">
        <g id="グループ_10304" data-name="グループ 10304" transform="translate(0 0)">
          <path id="パス_4091" data-name="パス 4091" d="M9.448,4.29,5.393.236a.81.81,0,0,0-1.143,0L.2,4.29A.811.811,0,0,0,1.339,5.434L4.817,1.955,8.3,5.434A.808.808,0,0,0,9.448,4.29Z" transform="translate(0 0)" fill="#014bb4"/>
        </g>
      </g>
    </g>
  </g>
</svg>
