<svg xmlns="http://www.w3.org/2000/svg" width="16" height="23.542" viewBox="0 0 16 23.542">
    <path id="パス_4087" data-name="パス 4087" d="M91.195,32.168c4.361,8.314,9.26,9.169,10.685,8.422l.371-.2-3.336-6.36c-.122.063-.247.127-.373.193-1.149.6-2.3-1.138-3.766-3.94s-2.25-4.735-1.1-5.338c.127-.066.249-.132.37-.2l-3.336-6.36-.372.2C88.914,19.336,86.834,23.855,91.195,32.168Zm13.074,7.169c.551-.289.249-.921-.065-1.518l-2.241-4.272c-.241-.459-.639-.718-.961-.549-.2.106-.673.33-1.279.631l3.329,6.347ZM96.086,23.628c.322-.168.335-.645.094-1.1s-2.24-4.272-2.24-4.272c-.313-.6-.661-1.2-1.212-.916l-1.217.638,3.329,6.347C95.432,23.994,95.883,23.734,96.086,23.628Z" transform="translate(-88.574 -17.262)" fill="#393939"/>
</svg>
